<svg width='200' height='200' fill="#ff5edf" xmlns="http://www.w3.org/2000/svg" xmlns:xlink="http://www.w3.org/1999/xlink" version="1.1" x="0px" y="0px" viewBox="0 0 100 100" enable-background="new 0 0 100 100" xml:space="preserve"><g><path d="M67.4,62.1c3.8,0.3,7.8-1.4,11.3-4.1c3.5-2.7,6.4-6.6,8.2-10.7c3.6-8.3,4.2-15.2,4.2-15.2s-3.3-14.4-9.4-13.4   c0,0,1.9,6.6,1.5,15.5c-0.2,4.5-1.5,9-3.7,12.8c-2.2,3.8-5.3,6.7-8.9,7.9C56,59.4,50,50,50,50S52.1,61,67.4,62.1z"/><path d="M70.9,46.4c2.9-2.5,4.6-6.5,5.1-10.9c0.5-4.4-0.1-9.2-1.7-13.4C71,13.7,66.5,8.4,66.5,8.4S54.1,0.5,50.4,5.5   c0,0,6,3.3,12,9.9c3,3.3,5.3,7.4,6.4,11.7c1.1,4.2,1,8.5-0.7,11.9C60.9,52.4,50.1,50,50.1,50S59.3,56.3,70.9,46.4z"/><path d="M50,50C50,50,50,50,50,50C50,50,50,50,50,50C50,50,50.1,50,50,50C50.1,50,50,50,50,50C50,50,50,50,50,50   c0.8-0.2,10.9-2.9,11.7-17.5c0.2-3.8-1.5-7.7-4.3-11.1c-2.8-3.4-6.5-6.2-10.6-8c-8.2-3.5-15-4-15-4c-14.2,3-14.6,10.1-14.6,10.1   s6.5-2.2,15.6-2.2c4.5,0,9.2,1.2,13.1,3.3c3.9,2.1,7,5.1,8.3,8.7C59,42.9,50.9,49.3,50,50c0.6-1,5.5-9.9-4.1-20.7   c-2.5-2.8-6.5-4.4-10.8-4.9c-4.3-0.5-9,0.2-13.2,1.9c-8.3,3.3-13.5,7.7-13.5,7.7c-8,12.2-3.2,17.4-3.2,17.4s3.1-6.2,9.5-12.6   c3.2-3.2,7.3-5.7,11.6-6.9c4.3-1.3,8.6-1.3,12,0.3C51.6,38.8,50.1,49.2,50,50C50,50,50,50,50,50c-0.2-0.8-2.9-10.9-17.5-11.8   c-3.8-0.2-7.7,1.5-11.1,4.2c-3.4,2.7-6.3,6.5-8,10.6c-3.5,8.2-4,15-4,15c3,14.3,10,14.5,10,14.5s-2.2-6.6-2.2-15.6   c0-4.5,1.2-9.2,3.3-13.1c2.1-3.9,5.1-7,8.7-8.3C43.1,41,49.5,49.3,50,50c-0.9-0.6-9.9-5.6-20.7,4c-2.8,2.5-4.4,6.5-4.9,10.8   c-0.5,4.4,0.2,9,1.8,13.2c3.3,8.3,7.7,13.5,7.7,13.5c12.2,8,17.4,3.2,17.4,3.2s-6.2-3.1-12.6-9.5c-3.2-3.2-5.6-7.3-6.9-11.6   c-1.3-4.3-1.3-8.6,0.4-12C38.7,48.7,48.8,49.8,50,50c-0.7,0.1-11.1,2.5-12.2,17.4c-0.3,3.8,1.4,7.8,4.1,11.3   c2.7,3.5,6.5,6.4,10.7,8.2c8.3,3.6,15.2,4.2,15.2,4.2s14.4-3.3,13.4-9.4c0,0-6.6,1.9-15.5,1.5c-4.5-0.2-9-1.5-12.8-3.8   c-3.8-2.2-6.7-5.3-7.9-8.9C40.7,56.2,49.7,50.2,50,50C50,50,50,50,50,50C50,50,50,50,50,50C50,50,50,50,50,50z"/><path d="M53.6,70.9c2.5,2.9,6.5,4.6,10.9,5.1c4.4,0.5,9.2-0.1,13.4-1.7c8.4-3.3,13.7-7.7,13.7-7.7s7.9-12.5,2.9-16.1   c0,0-3.3,5.9-9.9,11.9c-3.3,3-7.5,5.2-11.7,6.3c-4.2,1.1-8.5,1-11.9-0.8c-13.4-7.1-11-18-11-18S43.7,59.3,53.6,70.9z"/></g></svg>